<svg width="16" height="16" class="" viewBox="0 0 20 20" xmlns="http://www.w3.org/2000/svg"><g id="Desktop_VIP" stroke="none" stroke-width="1" fill-rule="evenodd"><g transform="translate(7.873 .143)"><path d="M6.484 4.94s2.476 1.227 3.698 1.748c1.188.506 1.323 2.4.016 3.04-1.307.64-1.67.744-1.67.744s.208-.53.178-1.044c-.085-.914-2.787-1.656-4.576-2.094 0 0-1.375-4.311-1.995-5.512C1.509.612.242.11.242.11l2.995.04s1.03-.05 1.488 1.055c.456 1.106 1.76 3.734 1.76 3.734" fill="#2873F0" mask="url(#b)"/></g><g transform="translate(8.635 8.27)"><path d="M5.547 6.265S4.334 8.713 3.8 9.965c-.507 1.187-2.44 1.322-3.079.015C.081 8.673.015 8.44.015 8.44s.387.076 1 .048c.915-.084 1.7-2.786 2.138-4.575 0 0 4.311-1.377 5.513-1.997 1.21-.624 1.71-1.892 1.71-1.892l-.04 3.44s.05.587-1.055 1.044c-1.105.455-3.734 1.757-3.734 1.757" fill="#2873F0" mask="url(#d)"/></g><g transform="translate(0 8.778)"><path d="M4.655 5.573S2.193 4.353.956 3.826C-.232 3.32-.367 1.423.94.786 2.248.145 2.774.026 2.774.026s-.34.545-.255 1.157C2.606 2.1 5.22 2.74 7.008 3.179c0 0 1.427 4.287 1.997 5.513.695 1.493 1.848 1.72 1.848 1.72l-3.396-.05s-.585.05-1.042-1.055c-.458-1.106-1.76-3.734-1.76-3.734" fill="#2873F0" mask="url(#f)"/></g><g transform="translate(0 .143)"><path d="M4.857 4.754s1.219-2.46 1.747-3.699c.506-1.188 2.4-1.321 3.04-.016.64 1.308.701 1.544.701 1.544s-.482.007-.993.035c-.916.087-1.663 2.702-2.101 4.49 0 0-4.296 1.405-5.513 1.996C.066 9.916 0 10.957 0 10.957l.068-3.4s-.05-.586 1.055-1.043c1.105-.457 3.734-1.76 3.734-1.76" fill="#2873F0" mask="url(#h)"/></g></g></svg>